<?xml version="1.0" standalone="no"?>
<!DOCTYPE svg PUBLIC "-//W3C//DTD SVG 20010904//EN"
 "http://www.w3.org/TR/2001/REC-SVG-20010904/DTD/svg10.dtd">
<svg version="1.0" xmlns="http://www.w3.org/2000/svg"
 width="840.000000pt" height="859.000000pt" viewBox="0 0 840.000000 859.000000"
 preserveAspectRatio="xMidYMid meet">

<g transform="translate(0.000000,859.000000) scale(0.100000,-0.100000)"
fill="#000000" stroke="none">
<path d="M3438 8527 c-27 -6 -48 -14 -48 -19 0 -4 -8 -8 -17 -8 -17 -1 -53
-22 -53 -32 0 -3 30 -8 68 -11 76 -6 162 -27 162 -39 0 -4 7 -8 15 -8 49 0
234 -159 267 -230 38 -83 43 -102 55 -213 5 -53 -13 -177 -27 -177 -3 0 -29
25 -59 55 -30 30 -57 55 -62 55 -4 0 -14 6 -21 13 -23 21 -82 62 -113 77 -16
8 -32 17 -35 20 -3 3 -28 13 -56 23 -210 74 -381 -19 -338 -182 21 -82 28 -89
44 -39 8 24 28 55 45 70 61 56 182 27 268 -64 20 -22 37 -46 37 -53 0 -7 3
-15 8 -17 11 -5 42 -76 42 -96 0 -16 -11 -18 -86 -19 -50 0 -90 -5 -97 -12 -6
-6 -17 -11 -24 -11 -19 0 -63 -40 -81 -75 -11 -22 -16 -57 -15 -131 0 -95 3
-106 33 -163 18 -33 36 -61 40 -61 4 0 11 36 14 80 4 44 12 80 17 80 5 0 9 6
9 14 0 27 68 76 108 78 56 2 85 -1 107 -13 28 -14 65 -74 65 -104 0 -14 5 -25
10 -25 6 0 10 -12 10 -27 0 -32 29 -144 41 -158 5 -5 9 -17 9 -27 0 -10 5 -18
10 -18 6 0 10 -7 10 -15 0 -25 49 -96 107 -153 49 -49 57 -54 86 -48 18 4 47
9 65 13 18 3 35 9 38 14 3 5 14 9 25 9 31 0 22 16 -28 53 -60 45 -122 122
-140 177 -20 60 -7 206 32 345 10 33 22 76 27 95 5 19 12 50 15 68 3 18 9 35
14 38 5 3 9 16 9 30 0 13 4 32 9 42 13 25 41 146 41 176 0 13 5 28 10 31 15 9
12 203 -3 245 -58 158 -176 275 -332 328 -92 32 -240 40 -337 19z"/>
<path d="M4730 8528 c-98 -20 -210 -80 -280 -150 -73 -72 -130 -184 -137 -268
-6 -64 14 -237 28 -246 5 -3 9 -23 9 -44 0 -21 5 -42 10 -45 6 -3 10 -16 10
-28 0 -13 11 -56 25 -97 13 -41 25 -87 25 -102 0 -16 4 -28 9 -28 5 0 11 -17
14 -37 3 -21 10 -56 17 -78 36 -122 38 -271 6 -334 -20 -39 -113 -132 -157
-158 -16 -10 -29 -21 -29 -25 0 -4 -9 -8 -20 -8 -11 0 -20 -4 -20 -8 0 -4 -22
-16 -50 -27 -27 -11 -50 -23 -50 -27 0 -4 -9 -8 -20 -8 -11 0 -28 -4 -38 -9
-58 -29 -230 -61 -330 -61 -73 0 -182 25 -182 42 0 4 -11 8 -24 8 -14 0 -28 5
-31 10 -3 6 -48 10 -101 10 -56 0 -94 -4 -94 -10 0 -5 8 -10 18 -10 46 -1 197
-63 224 -93 28 -31 147 -41 325 -28 83 6 163 16 177 22 35 16 42 6 23 -33 -8
-18 -21 -52 -29 -75 -7 -24 -16 -43 -20 -43 -5 0 -8 -9 -8 -20 0 -11 -4 -28
-10 -38 -5 -9 -21 -43 -34 -74 -14 -32 -29 -58 -33 -58 -9 0 -112 91 -185 163
-27 26 -56 47 -65 47 -20 0 -103 -78 -103 -97 0 -7 3 -13 8 -13 4 0 30 -21 57
-46 53 -47 115 -101 153 -133 25 -20 21 -51 -6 -51 -9 0 -42 -12 -72 -26 -30
-15 -64 -30 -75 -34 -11 -4 -62 -25 -113 -45 -88 -36 -95 -37 -135 -25 -23 7
-62 19 -87 27 -72 22 -218 91 -240 113 -3 3 -23 18 -45 35 -50 37 -114 106
-115 123 0 6 -4 12 -9 12 -11 0 -61 101 -61 123 0 9 -4 19 -10 22 -5 3 -10 19
-10 35 0 16 -4 32 -10 35 -5 3 -10 24 -10 47 0 34 3 39 18 33 9 -4 42 -11 72
-16 30 -5 71 -13 90 -19 19 -5 51 -10 70 -10 20 0 40 -4 46 -9 5 -5 27 -11 49
-14 22 -3 80 -13 128 -22 l89 -17 16 22 c9 12 27 34 40 50 12 15 22 31 22 34
0 10 -29 7 -49 -6 -27 -16 -51 -3 -51 28 0 24 -3 26 -27 19 -16 -3 -45 -9 -65
-12 -34 -5 -38 -3 -38 17 0 19 -4 21 -27 16 -93 -21 -92 -21 -99 13 -7 34 -22
50 -33 34 -10 -16 -50 -22 -64 -10 -6 7 -30 25 -52 42 -22 16 -53 43 -68 59
-27 28 -28 31 -11 43 24 18 112 21 124 4 3 -4 23 -15 45 -25 22 -11 42 -22 45
-25 10 -12 60 -34 66 -29 3 3 0 15 -7 27 -20 31 -4 36 36 12 20 -11 43 -21 51
-21 8 0 14 -4 14 -10 0 -5 7 -10 15 -10 19 0 19 4 -1 46 -9 19 -14 37 -11 40
5 5 10 3 75 -29 19 -9 40 -17 48 -17 8 0 14 -4 14 -10 0 -5 9 -10 20 -10 11 0
20 -3 20 -7 0 -13 85 -44 101 -38 9 3 30 31 49 62 19 30 39 61 44 67 6 6 18
25 26 41 8 17 21 36 28 44 7 7 12 20 10 28 -2 12 -30 16 -133 19 -509 19 -812
51 -897 95 -10 5 -29 9 -43 9 -14 0 -25 5 -25 10 0 6 -9 10 -19 10 -11 0 -41
11 -67 25 -26 14 -53 25 -60 25 -8 0 -14 5 -14 10 0 6 -6 10 -12 10 -16 0
-122 53 -126 63 -2 4 -12 7 -22 7 -10 0 -20 6 -23 13 -3 9 -10 9 -33 -2 -36
-17 -55 -25 -119 -47 -27 -10 -52 -19 -54 -20 -9 -7 34 -34 153 -94 193 -98
186 -92 186 -144 0 -49 -20 -146 -30 -146 -3 0 -15 7 -26 15 -10 8 -27 15 -36
15 -10 0 -18 5 -18 10 0 6 -6 10 -12 10 -7 0 -44 16 -82 35 -39 19 -76 35 -83
35 -7 0 -13 5 -13 10 0 6 -9 10 -19 10 -11 0 -21 3 -23 8 -1 4 -23 17 -48 28
-25 12 -70 33 -99 48 -30 14 -59 26 -64 26 -9 0 -53 -34 -121 -94 -35 -31 -29
-38 64 -81 36 -16 67 -33 68 -37 2 -5 12 -8 22 -8 10 0 20 -3 22 -7 4 -10 110
-63 125 -63 6 0 13 -3 15 -7 4 -10 291 -153 306 -153 7 0 12 -4 12 -9 0 -5 9
-11 19 -14 21 -5 51 -65 51 -103 0 -12 5 -26 10 -29 13 -8 13 -75 1 -75 -5 0
-40 16 -77 35 -37 19 -73 35 -80 35 -7 0 -14 3 -16 8 -4 9 -110 62 -125 62 -6
0 -13 3 -15 8 -4 9 -110 62 -126 62 -6 0 -12 5 -12 10 0 6 -5 10 -12 10 -15 0
-162 73 -166 83 -2 4 -9 7 -15 7 -15 0 -121 53 -125 63 -7 15 -22 6 -22 -13 0
-37 41 -102 105 -167 34 -35 66 -63 69 -63 4 0 12 -5 19 -10 56 -47 74 -60 85
-60 6 0 12 -4 12 -10 0 -5 7 -10 15 -10 8 0 15 -4 15 -9 0 -5 8 -11 18 -15 9
-3 35 -17 57 -31 22 -14 59 -35 82 -47 24 -12 43 -26 43 -30 0 -4 7 -8 15 -8
8 0 15 -4 15 -10 0 -5 7 -10 15 -10 15 0 63 -27 75 -41 3 -3 20 -12 38 -20 17
-8 32 -17 32 -21 0 -5 4 -8 9 -8 6 0 50 -25 98 -55 48 -30 95 -58 103 -62 8
-4 17 -9 20 -12 3 -4 23 -19 45 -36 22 -16 42 -31 45 -35 3 -3 23 -18 45 -35
39 -28 229 -216 270 -266 11 -13 32 -39 47 -57 24 -29 26 -35 14 -48 -8 -8
-19 -14 -25 -14 -6 0 -11 -4 -11 -8 0 -4 -15 -16 -32 -27 -18 -10 -35 -21 -38
-25 -11 -13 -141 -100 -150 -100 -6 0 -10 -4 -10 -8 0 -4 -15 -16 -32 -27 -18
-10 -42 -27 -52 -37 -11 -10 -25 -18 -32 -18 -7 0 -14 -5 -16 -12 -3 -8 -12
-8 -36 3 -18 8 -32 17 -32 21 0 5 -6 8 -14 8 -8 0 -16 3 -18 8 -4 10 -85 62
-97 62 -5 0 -11 3 -13 8 -1 4 -34 27 -72 52 -100 65 -98 61 -90 144 9 91 18
110 74 149 33 23 191 24 234 2 15 -8 35 -15 42 -15 8 0 14 -4 14 -10 0 -5 5
-10 11 -10 6 0 17 -6 24 -12 8 -7 30 -24 49 -38 67 -47 80 -117 33 -172 -27
-30 -64 -40 -116 -32 -26 4 -42 13 -49 28 -21 43 -23 63 -5 85 17 20 20 20 76
7 63 -15 76 -9 47 20 -39 38 -50 44 -90 44 -45 0 -73 -13 -112 -52 -49 -49
-49 -108 -1 -152 58 -54 183 -106 183 -76 0 6 7 10 15 10 8 0 15 4 15 9 0 5
14 14 30 21 17 7 30 16 30 21 0 4 8 10 18 13 9 3 33 19 52 36 19 17 43 33 53
36 9 3 17 10 17 15 0 5 5 9 10 9 6 0 17 6 24 13 12 10 11 16 -2 40 -9 15 -20
27 -24 27 -4 0 -8 7 -8 15 0 8 -3 15 -7 15 -5 0 -21 20 -38 44 -16 24 -44 54
-62 66 -18 12 -42 30 -53 40 -11 10 -36 28 -55 41 -19 13 -35 27 -35 32 0 4
-5 7 -10 7 -6 0 -16 5 -23 10 -17 16 -276 183 -317 206 -19 10 -36 22 -38 27
-2 4 -12 7 -22 7 -10 0 -20 4 -22 9 -3 9 -252 131 -268 131 -5 0 -10 5 -10 10
0 6 -8 10 -18 10 -10 0 -36 9 -58 19 -22 11 -52 23 -67 26 -15 4 -30 11 -33
16 -3 5 -16 9 -29 9 -13 0 -27 5 -30 10 -3 6 -22 10 -42 10 -30 0 -44 -8 -79
-44 -23 -25 -45 -54 -49 -65 -3 -12 -11 -21 -16 -21 -5 0 -9 -11 -9 -25 0 -17
5 -25 18 -25 37 0 229 -79 264 -109 24 -21 23 -26 -13 -61 -40 -38 -75 -38
-164 0 -39 17 -142 50 -154 50 -25 0 -71 -67 -71 -105 0 -18 5 -25 20 -25 11
0 28 -4 38 -9 38 -19 93 -41 105 -41 7 0 19 -6 28 -13 15 -11 13 -17 -22 -56
l-39 -43 -97 2 c-54 1 -104 1 -110 1 -9 -1 -13 -18 -13 -50 0 -53 8 -61 63
-61 53 0 61 -11 41 -58 -18 -46 -16 -45 -96 -42 -47 1 -57 -1 -62 -17 -3 -11
1 -131 9 -269 29 -452 37 -587 45 -739 5 -82 12 -183 16 -222 l6 -73 67 -47
c36 -26 71 -52 78 -58 36 -30 43 -35 53 -35 5 0 10 -3 10 -7 0 -5 21 -21 45
-38 25 -16 45 -33 45 -37 0 -5 4 -8 10 -8 5 0 21 -10 35 -22 l25 -22 0 -232 0
-233 -32 -22 c-18 -13 -35 -26 -38 -29 -3 -3 -39 -30 -80 -60 -41 -29 -81 -59
-87 -66 -7 -7 -28 -22 -48 -34 -19 -12 -35 -24 -35 -27 0 -7 41 -39 125 -97
38 -26 72 -52 73 -57 2 -5 9 -9 15 -9 7 0 24 -11 39 -25 15 -14 30 -25 34 -25
14 0 54 -56 54 -75 0 -22 46 -180 61 -207 5 -10 9 -26 9 -36 0 -10 3 -22 7
-26 4 -3 12 -21 18 -40 10 -29 8 -40 -15 -87 -14 -30 -39 -84 -54 -121 -16
-38 -33 -68 -38 -68 -4 0 -8 -10 -8 -22 -1 -13 -7 -34 -15 -48 -8 -14 -14 -30
-15 -36 0 -12 46 -27 135 -44 33 -6 80 -15 105 -20 25 -5 63 -12 85 -16 56 -9
82 -25 145 -86 30 -29 72 -64 93 -78 20 -14 37 -28 37 -32 0 -5 5 -8 10 -8 6
0 16 -5 23 -10 34 -30 243 -139 352 -185 22 -9 51 -21 65 -27 14 -6 33 -14 42
-19 10 -5 27 -9 38 -9 11 0 20 -4 20 -10 0 -5 6 -10 13 -10 10 1 138 -38 202
-60 36 -13 89 -28 160 -45 39 -9 78 -21 87 -26 10 -5 33 -9 52 -9 19 0 38 -4
41 -10 3 -5 17 -10 30 -10 13 0 46 -7 72 -15 48 -15 70 -22 153 -45 25 -7 59
-18 75 -26 17 -7 49 -18 73 -26 23 -7 42 -16 42 -20 0 -5 11 -8 25 -8 14 0 25
-3 25 -7 0 -5 17 -16 39 -26 76 -37 124 -97 64 -80 -44 13 -108 7 -157 -13
-25 -11 -46 -22 -46 -26 0 -5 -5 -8 -10 -8 -6 0 -25 -13 -43 -29 -61 -56 -80
-71 -89 -71 -4 0 -8 49 -8 109 l0 108 -69 12 c-94 15 -161 14 -161 -1 1 -21
23 -54 70 -105 25 -26 55 -61 66 -78 25 -36 39 -85 24 -85 -19 0 -204 195
-235 248 -29 49 -31 51 -85 56 -93 8 -208 24 -229 31 -35 11 -32 -14 6 -50 44
-42 159 -125 173 -125 6 0 10 -4 10 -10 0 -5 9 -10 20 -10 11 0 20 -4 20 -9 0
-5 8 -11 18 -14 23 -7 93 -49 110 -65 8 -6 35 -26 60 -44 26 -18 53 -38 60
-44 21 -22 -1 -23 -42 -3 -22 10 -45 19 -52 19 -7 0 -14 3 -16 8 -4 9 -110 62
-126 62 -6 0 -12 4 -12 8 0 5 -39 30 -86 56 -48 27 -96 56 -107 65 -42 33
-122 106 -130 119 -29 45 -57 65 -100 73 -26 5 -67 13 -92 19 -120 27 -134 28
-127 10 13 -32 120 -139 201 -200 36 -28 196 -118 224 -127 9 -3 17 -9 17 -14
0 -5 9 -9 20 -9 11 0 20 -3 20 -7 0 -5 20 -17 45 -28 25 -11 45 -23 45 -27 0
-5 9 -8 20 -8 11 0 20 -4 20 -10 0 -5 6 -10 13 -10 11 0 124 -64 177 -100 8
-6 23 -13 33 -16 9 -4 17 -10 17 -15 0 -5 9 -9 20 -9 11 0 20 -3 20 -7 0 -5
21 -21 45 -38 25 -16 45 -33 45 -37 0 -5 4 -8 10 -8 11 0 40 -23 119 -97 31
-28 59 -49 63 -45 3 4 -2 50 -13 102 -22 114 -24 189 -5 251 28 90 60 134 120
164 38 20 81 19 128 -2 38 -17 38 -17 38 -76 0 -65 10 -80 56 -90 l31 -6 10
107 c10 116 7 134 -35 167 -74 60 -92 84 -92 125 0 61 -13 77 -78 96 -31 9
-65 20 -74 25 -10 5 -25 9 -33 9 -8 0 -23 4 -33 9 -9 5 -57 21 -107 36 -49 15
-98 31 -107 36 -10 5 -24 9 -31 9 -17 0 -167 48 -189 60 -10 6 -27 10 -38 10
-11 0 -28 4 -38 9 -9 5 -44 17 -77 26 -33 9 -70 21 -83 26 -13 5 -32 9 -42 9
-11 0 -20 5 -20 10 0 6 -11 10 -25 10 -14 0 -33 4 -43 9 -9 5 -57 22 -107 37
-87 27 -283 120 -316 150 -8 8 -20 14 -26 14 -6 0 -13 4 -15 8 -1 5 -41 35
-88 68 -47 32 -96 68 -109 79 -105 86 -191 173 -191 192 0 7 -4 13 -10 13 -5
0 -10 6 -10 14 0 8 -4 16 -8 18 -7 3 -56 100 -72 143 -4 11 -12 31 -18 45 -26
64 -42 118 -42 143 0 15 -4 27 -10 27 -5 0 -10 15 -10 33 0 18 -4 37 -9 42 -4
6 -16 73 -25 150 -16 127 -17 249 -13 1335 5 1233 4 1208 43 1463 4 23 2 37
-5 37 -13 0 -125 -70 -129 -82 -2 -4 -9 -8 -16 -8 -15 0 -236 -212 -236 -227
0 -5 19 -30 43 -54 61 -63 66 -99 78 -532 l11 -368 -33 -27 c-18 -15 -43 -37
-55 -49 -13 -13 -26 -23 -30 -23 -4 0 -14 -8 -23 -18 -9 -9 -45 -42 -81 -72
-36 -30 -66 -58 -68 -62 -2 -5 -8 -8 -13 -8 -23 0 17 616 62 970 17 136 21
155 30 164 5 6 9 25 9 42 0 18 4 35 9 39 5 3 12 18 16 33 3 16 15 34 25 42 11
8 20 19 20 23 0 14 154 158 189 176 11 6 25 17 33 24 7 7 29 21 48 30 19 10
42 21 50 26 47 26 62 31 84 31 14 0 28 5 31 10 4 6 54 10 117 10 62 0 127 -4
145 -10 18 -5 50 -15 71 -21 63 -18 122 -44 122 -53 0 -4 -28 -5 -62 -1 -88
10 -148 9 -183 -1 -43 -13 -95 -46 -95 -61 0 -7 -4 -13 -9 -13 -30 0 -31 -62
-28 -1375 3 -902 8 -1339 15 -1380 6 -33 14 -78 17 -100 4 -22 10 -49 14 -60
5 -11 21 -60 36 -110 16 -49 32 -94 37 -100 4 -5 8 -17 8 -27 0 -10 4 -18 9
-18 5 0 12 -11 15 -24 10 -42 123 -201 163 -232 21 -15 45 -36 54 -46 9 -10
21 -18 27 -18 6 0 12 -3 14 -7 4 -11 86 -63 98 -63 5 0 10 -4 10 -9 0 -5 20
-17 45 -28 25 -10 45 -21 45 -25 0 -5 9 -8 20 -8 11 0 20 -3 20 -7 0 -5 34
-21 75 -38 41 -16 75 -33 75 -37 0 -5 6 -8 14 -8 8 0 51 -16 96 -35 45 -19 88
-35 96 -35 8 0 14 -4 14 -10 0 -5 11 -10 24 -10 14 0 27 -4 30 -8 3 -5 32 -17
65 -28 34 -10 61 -22 61 -26 0 -5 11 -8 25 -8 14 0 25 -4 25 -10 0 -5 9 -10
20 -10 11 0 28 -4 38 -10 9 -5 33 -15 52 -23 19 -8 61 -26 93 -41 32 -14 60
-26 62 -26 3 0 27 -10 53 -21 26 -12 63 -28 82 -36 80 -35 265 -128 268 -135
2 -4 10 -8 18 -8 14 0 114 -92 114 -105 0 -4 6 -13 13 -20 6 -8 18 -21 25 -29
9 -12 12 -67 10 -223 -3 -233 4 -213 -77 -197 -32 6 -33 6 -20 -17 6 -13 17
-29 23 -35 6 -6 22 -27 36 -47 14 -20 28 -37 33 -37 35 0 -65 -120 -113 -135
-11 -4 -20 -11 -20 -16 0 -5 -7 -9 -15 -9 -8 0 -15 -4 -15 -10 0 -5 -5 -10
-12 -10 -6 0 -26 -11 -44 -25 -18 -14 -37 -25 -43 -25 -6 0 -11 -4 -11 -8 0
-5 -11 -15 -25 -22 -24 -13 -24 -13 -7 -44 9 -17 19 -33 22 -36 3 -3 18 -23
34 -45 53 -71 126 -135 156 -135 14 0 13 16 -3 32 -18 19 -57 104 -57 126 0
23 57 85 73 79 7 -2 13 -14 15 -28 2 -13 7 -33 12 -44 5 -11 11 -33 14 -50 9
-54 25 -129 41 -200 10 -38 21 -92 25 -120 10 -63 20 -95 30 -95 9 0 40 119
40 154 0 14 5 28 10 31 6 3 10 24 10 46 0 21 5 39 10 39 6 0 10 12 10 26 0 14
6 49 14 77 8 29 19 78 26 110 7 31 17 57 21 57 4 0 20 -10 34 -23 20 -17 27
-32 27 -59 0 -38 -30 -118 -44 -118 -4 0 -8 -9 -8 -20 0 -26 3 -25 54 9 72 50
176 177 176 215 0 8 -20 25 -45 37 -25 12 -54 31 -65 41 -10 10 -24 18 -30 18
-6 0 -22 11 -36 25 -14 14 -29 25 -34 25 -5 0 -27 19 -49 42 -52 52 -53 81 -6
131 19 20 35 40 35 43 0 3 7 12 15 20 8 9 15 20 15 25 0 12 -42 12 -74 -1
l-26 -10 0 212 0 211 27 36 c37 48 121 131 133 131 5 0 19 8 29 17 25 21 117
74 201 115 36 18 67 36 68 40 2 4 11 8 20 8 10 0 40 12 67 25 28 14 56 25 63
25 6 0 12 3 12 8 0 4 27 16 61 26 33 11 62 23 65 28 3 4 16 8 30 8 13 0 24 4
24 9 0 5 12 11 28 14 41 8 217 71 220 80 2 4 15 7 28 7 13 0 24 5 24 10 0 6 9
10 20 10 19 0 53 14 208 86 40 19 77 34 83 34 5 0 9 5 9 10 0 6 7 10 15 10 9
0 41 16 71 35 30 19 57 35 60 35 2 0 10 4 17 10 34 28 108 80 113 80 13 0 118
117 153 169 20 31 39 58 44 59 4 2 7 12 7 23 0 10 5 19 10 19 6 0 10 11 10 25
0 14 3 25 8 25 4 0 15 21 25 48 10 26 23 55 28 64 5 10 9 29 9 42 0 14 4 27 9
30 4 3 11 22 14 43 3 21 15 92 27 158 19 117 20 157 20 1423 0 1220 -1 1304
-17 1330 -24 37 -33 46 -68 64 -51 27 -126 40 -165 28 -43 -12 -120 -13 -120
-1 0 12 128 61 157 61 12 0 25 5 28 10 4 6 62 10 141 10 83 0 134 -4 134 -10
0 -5 10 -10 22 -10 23 0 130 -49 136 -62 2 -5 10 -8 18 -8 8 0 14 -4 14 -9 0
-5 13 -14 28 -20 16 -7 49 -31 74 -54 25 -23 59 -54 75 -68 15 -15 35 -35 43
-45 52 -65 70 -93 70 -112 0 -11 4 -23 9 -26 4 -3 11 -27 15 -53 3 -26 13 -91
21 -143 17 -105 33 -241 45 -400 15 -190 33 -590 27 -596 -3 -3 -14 3 -25 13
-46 44 -102 92 -138 119 -22 16 -59 48 -83 72 l-44 44 7 366 c4 212 11 371 16
376 6 6 10 27 10 48 0 41 33 103 69 128 11 8 21 18 21 23 0 40 -221 267 -259
267 -6 0 -11 5 -11 10 0 6 -5 10 -10 10 -6 0 -33 11 -60 24 -54 26 -56 24 -39
-39 19 -70 29 -155 38 -335 12 -219 12 -2243 0 -2365 -13 -144 -36 -269 -58
-328 -6 -16 -11 -39 -11 -53 0 -13 -4 -24 -10 -24 -5 0 -10 -11 -10 -24 0 -14
-4 -28 -10 -31 -5 -3 -10 -13 -10 -20 0 -18 -52 -129 -62 -133 -4 -2 -8 -12
-8 -23 0 -10 -4 -19 -10 -19 -5 0 -10 -7 -10 -15 0 -8 -4 -15 -9 -15 -5 0 -12
-8 -16 -19 -9 -28 -109 -126 -190 -186 -22 -17 -49 -38 -59 -47 -11 -10 -56
-41 -100 -70 -45 -29 -83 -55 -86 -58 -3 -3 -18 -12 -35 -20 -16 -8 -32 -18
-35 -21 -8 -10 -112 -59 -126 -59 -7 0 -14 -4 -16 -8 -1 -4 -43 -20 -93 -35
-49 -15 -98 -32 -107 -37 -10 -6 -29 -10 -43 -10 -14 0 -25 -4 -25 -10 0 -5
-7 -10 -16 -10 -18 0 -169 -47 -196 -61 -10 -5 -25 -9 -33 -9 -18 0 -172 -47
-197 -61 -10 -5 -29 -9 -42 -9 -14 0 -28 -4 -31 -10 -3 -5 -15 -10 -26 -10
-10 0 -27 -4 -37 -9 -24 -13 -117 -41 -136 -41 -9 0 -16 -4 -16 -10 0 -5 -9
-10 -20 -10 -11 0 -28 -4 -38 -9 -9 -5 -43 -17 -75 -26 -61 -19 -59 -18 -72
-100 -5 -32 -18 -52 -71 -102 l-64 -61 0 -91 c0 -49 4 -101 10 -116 8 -22 14
-24 37 -19 40 10 44 16 52 83 8 68 5 63 48 85 92 46 200 -20 241 -148 24 -75
14 -260 -20 -349 -16 -43 -3 -43 41 -1 54 54 90 85 136 119 22 17 42 33 45 36
3 3 20 14 38 24 17 11 32 23 32 27 0 4 5 8 10 8 9 0 87 47 100 60 3 3 25 15
50 28 58 30 220 118 285 154 28 15 67 35 88 45 20 10 37 21 37 25 0 5 9 8 20
8 11 0 20 4 20 9 0 5 11 12 25 15 14 4 25 11 25 16 0 6 4 10 10 10 5 0 18 7
27 15 23 19 102 77 121 90 9 6 25 18 36 28 12 10 33 26 49 35 15 9 27 20 27
24 0 4 5 8 11 8 6 0 17 7 25 15 8 8 25 21 36 30 12 8 19 18 15 21 -7 7 -19 4
-134 -30 -28 -9 -61 -16 -72 -16 -11 0 -23 -4 -26 -10 -3 -5 -19 -10 -36 -10
-16 0 -37 -4 -47 -9 -9 -6 -34 -13 -55 -16 -29 -5 -43 -14 -61 -44 -29 -46
-119 -128 -163 -149 -18 -9 -33 -19 -33 -24 0 -4 -6 -8 -14 -8 -8 0 -16 -4
-18 -8 -3 -9 -71 -49 -173 -101 -38 -19 -71 -39 -73 -43 -2 -5 -12 -8 -22 -8
-10 0 -22 -4 -25 -10 -3 -5 -15 -10 -25 -10 -10 0 -20 -5 -22 -12 -3 -7 -12
-9 -22 -5 -16 6 -16 9 -2 22 8 8 18 15 23 15 4 0 23 14 42 30 18 17 37 30 42
30 4 0 14 6 21 12 18 17 45 33 88 55 19 9 37 19 40 22 3 4 19 13 35 21 17 8
32 17 35 20 3 3 30 22 60 42 108 73 159 138 96 122 -26 -6 -154 -23 -238 -30
-49 -5 -58 -9 -58 -25 0 -10 -4 -19 -10 -19 -5 0 -10 -5 -10 -11 0 -18 -52
-81 -144 -172 -63 -62 -92 -85 -99 -78 -8 8 -7 15 1 23 7 7 12 20 12 30 0 10
5 18 10 18 6 0 10 6 10 13 0 7 20 33 45 57 39 38 95 120 95 138 0 6 -187 -6
-219 -15 -24 -6 -24 -7 -17 -105 7 -117 -2 -129 -59 -76 -93 85 -202 129 -272
109 -74 -21 -36 41 46 76 23 10 41 21 41 25 0 5 7 8 15 8 8 0 23 4 33 9 9 5
37 17 62 26 25 9 53 21 62 26 10 5 27 9 37 9 11 0 22 4 25 9 3 5 20 11 38 14
38 6 194 46 223 58 11 4 34 10 50 12 17 3 73 17 125 32 52 15 107 29 123 32
15 3 30 9 33 14 3 5 18 9 35 9 16 0 29 5 29 10 0 6 8 10 18 10 10 0 52 12 93
26 77 27 91 32 151 58 20 9 41 16 47 16 6 0 11 5 11 10 0 6 6 10 14 10 26 0
317 155 324 172 2 4 8 8 14 8 5 0 15 6 23 13 7 6 25 21 41 32 15 11 57 48 93
83 37 35 75 65 86 68 36 9 129 25 170 30 22 3 49 9 60 14 11 5 40 11 65 15 69
9 73 14 49 65 -20 42 -20 44 -3 57 24 17 82 17 100 -1 9 -9 10 -17 4 -21 -5
-3 -10 -18 -10 -32 0 -40 -32 -148 -61 -205 -5 -10 -9 -25 -9 -33 0 -8 -4 -15
-10 -15 -5 0 -10 -5 -10 -11 0 -38 -145 -194 -249 -267 -36 -25 -68 -49 -71
-52 -19 -19 -161 -86 -220 -103 -23 -6 107 -16 180 -13 36 2 68 1 72 -1 10 -5
-24 -39 -77 -78 -22 -17 -42 -32 -45 -35 -5 -5 -117 -56 -157 -71 -13 -5 -33
-13 -45 -18 -65 -26 -120 -43 -124 -38 -3 2 19 33 48 68 81 98 96 111 118 104
24 -8 25 -21 4 -43 -31 -30 3 -24 73 14 117 63 116 64 -43 64 l-141 0 -84 -80
c-45 -44 -87 -80 -91 -80 -5 0 -21 -11 -36 -25 -15 -14 -32 -25 -39 -25 -7 0
-13 -4 -13 -8 0 -5 -20 -19 -45 -32 -25 -13 -45 -30 -45 -39 0 -9 16 -29 36
-45 45 -36 35 -48 -49 -58 -174 -21 -204 -25 -220 -34 -15 -9 -12 -13 24 -32
22 -12 47 -22 54 -22 7 0 15 -3 17 -7 4 -10 110 -63 125 -63 6 0 13 -4 15 -8
4 -11 118 -64 129 -60 10 3 -44 63 -83 92 -42 31 -15 46 80 46 43 0 92 4 108
9 16 5 66 12 111 15 l82 5 3 -92 3 -92 58 60 c31 33 63 72 70 87 6 16 15 28
19 28 5 0 8 5 8 11 0 20 26 36 63 41 25 3 37 0 37 -9 0 -22 -30 -107 -56 -154
-35 -68 -30 -75 26 -35 28 20 53 36 56 36 9 0 51 49 72 83 9 15 20 27 24 27 4
0 8 8 8 18 0 10 4 22 9 28 12 12 41 133 41 168 0 26 -2 27 -32 21 -18 -4 -34
-11 -36 -16 -2 -5 -11 -9 -21 -9 -9 0 -21 -4 -26 -8 -6 -5 -32 -17 -60 -26
-27 -10 -59 -21 -70 -26 -59 -25 -289 -40 -308 -21 -6 6 -22 11 -35 11 -13 0
-30 7 -38 15 -9 8 -14 15 -12 16 2 0 41 7 88 15 47 8 103 17 125 20 22 4 44
10 50 15 5 5 19 9 32 9 13 0 31 4 41 9 9 5 44 17 77 27 33 9 64 21 70 26 5 4
19 8 31 8 12 0 24 3 26 8 2 4 38 25 81 47 43 22 101 63 130 91 54 52 62 62
112 129 17 22 33 42 38 43 4 2 7 8 7 14 0 5 6 16 13 23 22 25 32 39 45 66 8
14 25 39 38 54 13 15 24 31 24 35 0 3 8 15 18 26 9 10 35 41 57 68 49 61 98
106 173 159 31 23 59 45 60 49 2 4 10 8 18 8 8 0 14 3 14 8 0 9 58 42 75 42 7
0 15 4 17 8 4 10 115 62 133 62 7 0 17 5 20 10 3 6 17 10 30 10 13 0 26 4 29
9 6 9 18 12 144 32 52 9 72 16 72 27 0 17 -47 60 -75 68 -11 3 -29 9 -40 14
-11 4 -58 12 -106 17 -153 17 -294 -14 -374 -82 -16 -15 -40 -35 -53 -46 -12
-10 -27 -19 -32 -19 -12 0 -1 83 12 88 4 2 8 15 8 28 0 13 3 24 8 24 4 0 15
20 25 45 11 25 23 45 28 45 5 0 9 7 9 15 0 8 4 15 8 15 4 0 15 12 24 27 20 34
90 108 138 146 19 15 61 47 92 72 31 25 61 45 67 45 6 0 11 4 11 8 0 5 16 17
35 28 19 10 35 21 35 24 0 3 15 11 33 19 17 8 34 17 37 20 3 4 25 15 50 25 25
10 53 22 62 27 10 5 49 9 88 9 80 0 86 8 43 57 -35 38 -145 98 -198 107 -76
14 -207 18 -218 7 -6 -6 -26 -11 -44 -11 -18 0 -33 -4 -33 -8 0 -4 -15 -13
-33 -20 -44 -16 -72 -39 -206 -172 -109 -108 -208 -190 -231 -190 -6 0 -10 -4
-10 -8 0 -5 -16 -17 -35 -28 -19 -10 -35 -22 -35 -26 0 -5 -7 -8 -15 -8 -8 0
-15 -4 -15 -10 0 -5 -4 -10 -9 -10 -13 0 -135 -73 -139 -82 -2 -5 -10 -8 -18
-8 -9 0 -12 -4 -9 -10 3 -5 32 -10 63 -11 84 -1 155 -12 159 -25 2 -6 -17 -33
-42 -59 -25 -27 -57 -65 -72 -84 -15 -20 -40 -48 -55 -63 -15 -14 -28 -30 -28
-36 0 -12 -21 -20 -37 -15 -7 3 -13 11 -13 18 0 7 -9 30 -19 52 -25 48 -48
102 -55 129 -4 13 6 53 24 100 16 43 30 86 30 96 0 9 4 19 9 22 5 3 11 20 14
38 10 64 46 183 57 186 6 2 31 19 56 38 24 19 49 34 54 34 6 0 10 3 10 8 0 4
21 21 45 37 25 17 45 33 45 38 0 4 5 7 10 7 6 0 16 5 23 10 7 6 20 17 31 24
18 12 18 13 -6 37 -13 13 -41 35 -61 49 -20 14 -37 28 -37 33 0 4 -5 7 -11 7
-6 0 -16 6 -24 12 -7 7 -23 21 -36 30 -13 9 -43 31 -66 47 l-43 31 0 246 0
247 28 23 c15 13 30 24 34 24 4 0 13 6 20 13 7 7 41 32 74 55 34 23 69 48 77
57 9 8 20 15 26 15 6 0 11 3 11 8 0 4 21 21 45 37 l45 30 0 67 c0 37 4 122 10
190 14 176 49 747 56 940 l5 117 -72 3 -73 3 -20 37 c-11 21 -17 41 -13 44 4
4 30 11 58 15 29 5 56 12 61 17 5 5 6 27 2 50 l-7 42 -105 0 -105 0 -40 40
c-32 33 -37 43 -27 55 7 8 18 15 26 15 12 0 66 21 106 41 10 5 23 9 29 9 6 0
17 7 25 15 14 13 13 18 -4 42 -10 16 -22 36 -25 46 -12 34 -42 33 -132 -2 -49
-19 -93 -34 -132 -44 -39 -9 -46 -8 -83 18 -47 32 -48 49 -5 73 17 9 32 20 33
25 2 4 12 7 23 7 10 0 19 4 19 8 0 9 148 62 173 62 8 0 17 6 20 13 5 14 -13
57 -24 57 -4 0 -10 8 -13 18 -3 10 -22 34 -42 55 -29 30 -44 37 -75 37 -21 0
-41 -4 -44 -10 -3 -5 -15 -10 -26 -10 -10 0 -27 -4 -37 -9 -9 -5 -38 -18 -64
-28 -27 -10 -48 -21 -48 -25 0 -5 -8 -8 -18 -8 -10 0 -42 -11 -70 -25 -29 -14
-56 -25 -62 -25 -5 0 -10 -4 -10 -10 0 -5 -9 -10 -20 -10 -11 0 -20 -4 -20
-10 0 -5 -6 -10 -12 -10 -12 0 -117 -49 -128 -60 -3 -3 -18 -12 -35 -20 -16
-8 -32 -18 -35 -21 -6 -6 -199 -122 -215 -128 -5 -2 -17 -12 -25 -21 -8 -9
-30 -25 -47 -35 -18 -11 -33 -23 -33 -27 0 -4 -6 -8 -12 -8 -7 0 -32 -15 -55
-33 -22 -17 -54 -41 -70 -52 -34 -24 -91 -81 -118 -119 -20 -27 -32 -43 -68
-86 -18 -21 -18 -22 10 -46 15 -13 36 -27 46 -30 9 -3 17 -10 17 -15 0 -5 6
-9 13 -9 7 0 22 -8 33 -19 11 -10 40 -31 65 -46 24 -16 50 -34 57 -42 22 -21
61 -27 90 -12 35 18 101 62 130 87 34 30 31 92 -9 137 -17 19 -37 35 -45 35
-8 0 -14 5 -14 10 0 6 -25 10 -55 10 -30 0 -55 -4 -55 -10 0 -5 -5 -10 -11
-10 -14 0 -39 -26 -39 -41 0 -8 11 -9 38 -4 46 10 90 10 99 1 17 -16 6 -76
-17 -98 -31 -29 -109 -31 -140 -3 -22 20 -50 76 -50 101 0 20 91 109 128 125
17 8 32 17 32 20 0 18 87 39 163 39 105 0 144 -18 174 -80 l22 -45 1 -1237 c0
-800 -4 -1256 -10 -1290 -6 -29 -15 -78 -21 -108 -20 -103 -49 -201 -79 -263
-11 -22 -20 -47 -20 -54 0 -7 -3 -13 -8 -13 -4 0 -16 -16 -26 -35 -11 -19 -23
-35 -28 -35 -4 0 -8 -6 -8 -14 0 -17 -29 -29 -44 -18 -6 5 -51 21 -101 36 -49
15 -100 31 -113 37 -13 5 -34 9 -47 9 -13 0 -26 4 -29 9 -3 4 -22 11 -43 15
-21 3 -67 12 -103 19 l-65 13 -3 42 c-3 41 -2 42 28 42 17 0 50 -4 73 -9 23
-5 78 -17 122 -26 44 -9 88 -21 97 -26 10 -5 29 -9 42 -9 13 0 26 -4 28 -10 2
-5 23 -12 47 -16 43 -7 44 -7 36 17 -4 13 -9 40 -12 61 -4 29 -10 37 -31 41
-15 3 -65 14 -112 26 -47 11 -104 25 -128 31 -23 5 -60 10 -82 10 -21 0 -42 5
-45 10 -3 6 -19 10 -36 10 -27 0 -29 3 -29 36 l0 36 63 -5 c34 -3 127 -10 206
-16 80 -6 147 -8 150 -5 3 3 -2 19 -12 35 -9 17 -17 36 -17 44 0 18 -77 35
-167 35 -44 1 -88 6 -101 13 l-23 13 26 12 c14 7 32 12 40 12 8 0 15 5 15 10
0 6 6 10 14 10 16 0 139 70 144 82 2 5 8 8 14 8 14 0 102 94 119 128 8 15 16
29 19 32 15 14 40 61 40 75 0 8 5 15 10 15 17 0 11 42 -7 56 -10 7 -29 14 -44
14 -14 0 -29 4 -35 9 -5 5 -25 11 -44 15 -36 6 -36 6 -54 -46 -11 -29 -23 -57
-27 -63 -5 -5 -9 -17 -9 -27 0 -10 -3 -18 -8 -18 -4 0 -13 -14 -21 -31 -18
-40 -132 -159 -153 -159 -9 0 -18 -3 -20 -7 -4 -10 -110 -63 -126 -63 -6 0
-12 -4 -12 -9 0 -5 -12 -11 -27 -14 -48 -9 -104 -25 -110 -31 -3 -3 4 -36 17
-73 33 -99 42 -146 47 -255 3 -66 1 -98 -6 -98 -6 0 -11 -11 -11 -25 0 -20 7
-26 43 -35 41 -10 88 -23 157 -43 19 -5 63 -20 98 -33 34 -13 69 -24 77 -24 8
0 15 -4 15 -10 0 -5 9 -10 20 -10 11 0 20 -4 20 -10 0 -5 7 -10 15 -10 8 0 24
-5 34 -12 19 -12 19 -12 -2 -30 -11 -11 -46 -33 -77 -50 -30 -18 -56 -35 -58
-40 -2 -4 -12 -8 -22 -8 -10 0 -20 -3 -22 -7 -4 -10 -110 -63 -126 -63 -6 0
-12 -3 -12 -8 0 -4 -15 -13 -32 -21 -18 -8 -51 -22 -73 -31 -22 -10 -74 -32
-115 -50 -114 -49 -305 -143 -308 -152 -2 -4 -9 -8 -15 -8 -15 0 -121 -53
-125 -62 -2 -5 -12 -8 -22 -8 -10 0 -20 -3 -22 -7 -1 -5 -31 -21 -65 -38 -35
-16 -63 -33 -63 -37 0 -5 -6 -8 -12 -8 -7 0 -39 -16 -71 -35 -84 -50 -97 -46
-51 18 21 28 41 54 44 57 3 3 23 30 45 60 22 30 42 57 45 60 11 9 60 77 60 82
0 7 -37 16 -131 31 -71 12 -78 11 -88 -5 -6 -10 -11 -25 -11 -33 0 -8 -4 -15
-10 -15 -5 0 -10 -7 -10 -15 0 -8 -16 -49 -35 -91 -19 -41 -35 -79 -35 -82 0
-4 -16 -40 -35 -79 -19 -40 -35 -77 -35 -83 0 -5 -7 -10 -15 -10 -13 0 -15
179 -15 1548 -1 851 -3 1608 -6 1683 -4 94 -3 139 5 143 6 4 11 18 11 32 0 13
3 24 8 24 4 0 16 28 26 63 11 34 23 66 28 71 4 6 8 20 8 31 0 12 3 24 6 28 7
7 47 115 71 192 8 28 19 59 23 70 4 11 14 35 20 53 l13 33 31 -33 c17 -19 44
-51 60 -73 17 -22 33 -42 36 -45 3 -3 32 -38 64 -78 l57 -72 32 17 c17 10 40
26 51 35 11 10 28 20 38 24 21 6 24 30 6 49 -7 7 -31 34 -53 60 -22 26 -58 66
-80 90 -55 59 -75 84 -75 94 0 10 35 24 100 42 25 7 49 16 55 21 5 4 19 8 32
8 13 0 31 4 41 9 9 6 41 17 69 26 48 15 54 15 69 1 8 -9 22 -16 30 -16 8 0 14
-4 14 -10 0 -5 5 -10 10 -10 9 0 87 -47 100 -60 3 -3 19 -12 35 -20 17 -8 39
-23 49 -32 11 -10 23 -18 27 -18 4 0 14 -6 21 -12 7 -7 27 -21 45 -31 l31 -17
139 138 c76 75 156 151 178 167 22 16 42 32 45 35 12 15 139 100 149 100 6 0
11 3 11 8 0 4 16 16 35 26 19 11 35 23 35 28 0 4 9 8 20 8 11 0 20 5 20 10 0
6 6 10 14 10 8 0 21 6 28 13 7 6 27 19 43 27 17 8 32 17 35 20 9 9 85 51 103
57 9 3 17 9 17 14 0 5 5 9 10 9 6 0 36 16 66 35 30 19 59 35 64 35 6 0 10 3
10 8 0 4 9 12 19 17 62 32 121 69 121 77 0 4 6 8 13 8 7 0 24 11 39 25 15 14
31 25 35 25 13 0 110 98 130 130 9 17 21 30 25 30 4 0 8 9 8 19 0 11 5 23 10
26 12 7 14 48 2 43 -5 -1 -173 -85 -374 -185 -202 -101 -371 -183 -377 -183
-6 0 -11 -4 -11 -10 0 -5 -12 -10 -26 -10 -17 0 -23 4 -18 12 7 10 23 67 41
148 4 13 11 29 17 35 6 5 97 53 201 105 105 52 192 98 193 103 2 4 9 7 14 7
11 0 159 71 168 80 3 3 25 14 50 25 77 33 79 41 32 86 -23 21 -46 39 -50 39
-4 0 -14 9 -22 20 -8 11 -22 20 -32 20 -20 0 -111 -41 -116 -52 -2 -5 -12 -8
-22 -8 -10 0 -20 -3 -22 -7 -4 -10 -110 -63 -126 -63 -6 0 -12 -4 -12 -10 0
-5 -6 -10 -12 -10 -16 0 -122 -53 -126 -62 -2 -5 -10 -8 -17 -8 -7 0 -26 -7
-41 -15 -42 -21 -52 -4 -54 90 -3 100 -3 105 12 105 16 0 122 53 126 63 2 4
12 7 22 7 10 0 20 3 22 8 3 8 109 62 121 62 5 0 15 7 23 15 17 16 9 21 -78 48
-21 7 -38 15 -38 19 0 5 -10 8 -22 8 -13 0 -29 4 -36 9 -9 5 -61 -15 -150 -59
-75 -37 -155 -74 -177 -81 -22 -8 -42 -17 -45 -20 -3 -3 -16 -9 -30 -12 -14
-3 -52 -12 -86 -21 -175 -44 -384 -64 -832 -80 -79 -2 -146 -7 -149 -10 -3 -3
-1 -11 5 -18 5 -7 22 -35 37 -63 16 -27 31 -52 34 -55 3 -3 12 -17 19 -31 17
-33 65 -89 76 -89 9 0 89 36 166 75 25 12 56 26 69 30 21 6 23 5 19 -16 -3
-13 -9 -32 -13 -41 -5 -14 -2 -18 14 -18 12 0 21 4 21 9 0 5 8 11 18 14 9 4
32 13 50 21 l34 16 -7 -30 c-7 -30 2 -38 20 -21 6 5 40 25 78 45 71 38 125 46
171 25 l25 -12 -28 -26 c-123 -115 -132 -121 -159 -114 -15 3 -28 10 -30 14
-8 19 -32 -6 -32 -33 0 -30 -1 -30 -37 -24 -21 3 -48 9 -60 12 -16 4 -23 1
-28 -15 -5 -16 -15 -21 -40 -21 -19 0 -37 5 -40 10 -3 6 -15 10 -26 10 -14 0
-21 -9 -26 -31 -5 -26 -9 -30 -29 -25 -82 21 -77 21 -62 -4 7 -13 27 -39 44
-57 l31 -34 84 17 c46 8 102 18 124 20 22 3 49 9 60 14 11 5 38 11 60 14 44 5
167 31 203 41 20 7 22 4 22 -28 0 -19 -7 -59 -16 -88 -19 -64 -84 -199 -96
-199 -4 0 -8 -5 -8 -10 0 -19 -127 -130 -149 -130 -6 0 -11 -4 -11 -8 0 -12
-137 -82 -160 -82 -11 0 -20 -3 -20 -7 0 -5 -28 -17 -63 -27 -34 -11 -70 -24
-79 -30 -18 -11 -80 7 -162 45 -22 11 -46 19 -53 19 -7 0 -21 4 -31 9 -24 12
-59 26 -117 46 -73 26 -75 31 -29 73 23 20 78 70 122 111 51 47 79 78 74 86
-22 37 -68 85 -82 85 -9 0 -60 -45 -113 -100 -121 -124 -131 -130 -149 -90 -7
17 -16 30 -20 30 -5 0 -8 11 -8 25 0 14 -4 25 -10 25 -5 0 -10 6 -10 14 0 12
-10 37 -60 151 -44 100 -62 146 -59 148 2 1 39 20 82 42 42 21 77 43 77 47 0
4 4 8 10 8 12 0 55 35 84 69 12 13 27 29 34 37 6 7 12 17 12 22 0 6 4 12 8 14
11 4 62 113 62 132 0 8 5 18 10 21 6 3 10 16 10 27 0 12 4 35 9 52 5 17 17 57
26 89 9 31 20 57 26 57 5 0 9 5 9 11 0 42 148 56 200 19 42 -30 70 -99 70
-171 0 -67 13 -75 40 -23 8 16 18 31 23 32 4 2 7 14 7 27 0 13 5 27 10 30 14
9 13 165 -2 205 -15 45 -55 89 -98 106 -19 9 -69 16 -112 16 -78 1 -96 10 -77
39 5 8 9 24 9 37 0 12 5 22 10 22 6 0 10 7 10 16 0 8 13 29 30 47 16 18 30 35
30 40 0 4 7 7 15 7 8 0 15 4 15 8 0 5 22 21 49 35 100 55 188 29 226 -66 l16
-40 15 27 c8 17 14 56 14 95 0 54 -4 71 -23 92 -28 32 -83 57 -140 65 -48 7
-173 -12 -183 -27 -3 -5 -14 -9 -25 -9 -10 0 -19 -4 -19 -10 0 -5 -7 -10 -15
-10 -15 0 -64 -27 -75 -41 -3 -3 -15 -12 -28 -18 -26 -14 -48 -31 -97 -76 -75
-69 -84 -75 -92 -62 -4 7 -9 58 -11 115 -3 77 0 120 14 172 10 39 21 70 26 70
4 0 8 7 8 15 0 45 213 235 263 235 7 0 17 4 23 9 16 15 120 41 167 41 25 0 49
5 52 10 3 6 -1 10 -9 10 -9 0 -16 3 -16 8 0 9 -43 27 -102 41 -55 13 -184 13
-248 -1z m-480 -1856 c7 -26 17 -51 21 -56 5 -6 9 -20 9 -33 0 -13 4 -23 9
-23 5 0 11 -12 14 -27 6 -35 38 -127 58 -165 5 -10 9 -25 9 -33 0 -8 4 -23 9
-33 5 -9 17 -36 26 -59 15 -36 24 -44 66 -57 26 -9 55 -16 63 -16 9 0 16 -4
16 -9 0 -5 12 -11 28 -14 15 -2 65 -19 112 -36 47 -17 93 -31 103 -31 9 0 17
-4 17 -10 0 -5 9 -10 20 -10 30 0 24 -19 -7 -26 -16 -3 -38 -10 -51 -15 -13
-5 -36 -9 -52 -9 -17 0 -30 -4 -30 -9 0 -5 -17 -11 -37 -14 -75 -10 -246 -56
-261 -70 -8 -8 -18 -32 -22 -54 -5 -21 -13 -54 -18 -73 -6 -19 -20 -73 -32
-120 -11 -47 -25 -93 -30 -102 -6 -10 -10 -31 -10 -47 0 -17 -4 -33 -10 -36
-5 -3 -10 -16 -10 -28 0 -12 -7 -44 -16 -72 -9 -27 -19 -57 -21 -65 -6 -20
-24 11 -34 60 -7 32 -48 192 -69 265 -5 17 -18 71 -30 120 -12 50 -26 98 -31
107 -5 10 -9 24 -9 32 0 7 -12 18 -27 23 -59 21 -100 32 -141 39 -23 4 -45 11
-48 15 -3 5 -18 9 -35 9 -16 0 -37 4 -47 9 -9 5 -44 17 -77 27 -33 9 -64 19
-68 21 -11 7 22 29 53 35 30 7 148 47 172 59 10 5 25 9 33 9 8 0 23 4 33 9 9
5 39 18 66 28 27 10 53 25 57 33 24 50 79 199 79 215 0 8 5 15 10 15 6 0 10
14 10 30 0 17 5 30 10 30 6 0 10 8 10 19 0 10 11 44 25 75 14 31 25 65 25 76
0 11 5 20 10 20 6 0 10 7 10 15 0 31 28 1 40 -43z m-274 -815 c3 -3 6 -22 6
-43 2 -37 -4 -45 -146 -186 -81 -82 -150 -148 -152 -148 -2 0 -31 27 -64 60
-39 39 -58 65 -54 75 3 8 9 15 14 15 4 0 21 14 38 30 18 17 35 30 39 30 5 0
22 13 39 28 17 15 43 36 58 47 27 19 43 33 84 66 38 32 58 39 95 35 21 -2 41
-6 43 -9z m-876 -322 c5 -13 12 -48 16 -77 11 -88 9 -87 157 -104 60 -7 62
-29 5 -45 -24 -6 -53 -15 -66 -20 -13 -5 -34 -9 -47 -9 -21 0 -25 -5 -25 -32
0 -35 -27 -189 -35 -196 -2 -2 -10 2 -18 10 -14 13 -21 45 -33 149 -5 40 -9
47 -38 57 -18 7 -44 12 -59 12 -42 0 -117 23 -117 36 0 12 18 17 115 33 93 16
93 16 98 84 10 120 26 156 47 102z m680 -481 c15 -80 22 -108 31 -120 5 -6 37
-14 72 -17 110 -10 130 -33 50 -56 -106 -29 -109 -30 -121 -64 -7 -19 -12 -53
-13 -78 -1 -55 -20 -111 -35 -101 -13 8 -23 45 -32 117 -11 79 -18 85 -118
104 -120 23 -119 40 2 65 103 22 114 34 114 118 0 52 18 104 32 90 5 -5 13
-31 18 -58z m-646 -80 c17 -17 22 -79 7 -88 -5 -4 -21 -2 -35 4 -22 8 -26 16
-26 48 0 55 22 69 54 36z m-607 -146 c7 -24 15 -64 19 -89 6 -50 28 -69 82
-69 61 0 102 -12 102 -30 0 -11 -10 -20 -27 -23 -128 -26 -131 -27 -137 -70
-26 -163 -29 -177 -47 -177 -11 0 -18 10 -22 33 -11 69 -28 161 -32 167 -2 4
-37 12 -77 19 -73 12 -118 28 -118 42 0 7 11 10 108 28 96 18 102 25 102 122
0 37 17 89 29 89 4 0 12 -19 18 -42z m633 -109 l0 -60 -37 3 c-33 3 -38 7 -46
37 -4 19 -6 45 -3 58 5 19 13 23 46 23 l40 0 0 -61z m-1462 -319 c3 -167 3
-170 -18 -170 -19 0 -29 6 -65 38 -7 6 -17 12 -21 12 -3 0 -14 8 -23 18 -9 10
-31 27 -48 37 -18 11 -33 23 -33 27 0 4 -6 8 -14 8 -24 0 -28 32 -7 47 11 7
27 20 35 28 8 8 17 15 20 15 3 0 25 18 48 39 86 78 103 90 113 80 6 -6 11 -84
13 -179z m1462 125 l0 -65 -35 0 -35 0 0 59 c0 61 5 69 48 70 21 1 22 -3 22
-64z m3640 25 c8 -11 18 -20 23 -20 4 0 18 -9 30 -21 12 -12 38 -33 57 -48 84
-63 84 -69 15 -116 -24 -17 -45 -33 -45 -37 0 -5 -5 -8 -11 -8 -6 0 -29 -16
-52 -35 -66 -57 -67 -56 -67 128 0 90 3 167 7 170 12 12 28 7 43 -13z m-3002
-88 l3 -63 -28 3 c-25 3 -29 8 -35 48 -9 64 -2 82 30 78 26 -3 27 -6 30 -66z
m-638 -182 c0 -66 -1 -70 -23 -70 -34 0 -47 19 -47 66 0 60 8 74 41 74 l29 0
0 -70z m1010 -355 c5 -225 13 -423 16 -442 5 -27 3 -32 -9 -28 -15 7 -37 47
-37 70 0 8 -4 15 -10 15 -5 0 -10 11 -10 25 0 14 -4 25 -10 25 -5 0 -10 7 -10
15 0 8 -4 23 -10 33 -11 21 -28 61 -86 207 -15 39 -31 74 -36 79 -4 6 -8 20
-8 33 0 13 -4 23 -8 23 -4 0 -13 20 -21 44 -10 36 -10 48 1 65 7 12 16 21 20
21 5 0 8 5 8 11 0 7 8 19 18 28 9 9 34 37 55 63 21 26 43 53 50 60 7 7 23 28
36 46 14 21 27 30 33 24 5 -5 13 -193 18 -417z m-340 316 c0 -51 -3 -61 -20
-66 -41 -13 -60 3 -60 50 0 64 7 75 46 75 l34 0 0 -59z m-1260 -61 c0 -67 -1
-70 -24 -70 -29 0 -36 16 -36 79 0 54 4 61 37 61 22 0 23 -3 23 -70z m610
-130 l0 -70 -35 0 c-29 0 -36 4 -41 25 -8 32 4 98 19 107 7 4 22 8 35 8 21 0
22 -4 22 -70z m-592 -92 c-3 -63 -3 -63 -35 -66 l-31 -3 -4 58 c-2 32 -3 61
-1 66 3 4 20 7 39 7 l35 0 -3 -62z m1312 10 c7 -18 20 -49 28 -68 8 -19 18
-44 22 -55 4 -11 15 -36 24 -57 9 -20 16 -39 16 -42 0 -6 8 -25 65 -151 12
-27 28 -68 36 -90 8 -22 17 -42 20 -45 3 -3 8 -17 11 -32 6 -32 0 -30 -57 23
-22 21 -53 48 -70 60 -16 13 -37 31 -46 41 -9 10 -19 18 -23 18 -4 0 -17 10
-30 23 -12 12 -51 47 -85 77 -125 109 -125 108 -110 128 8 9 19 22 24 28 6 6
21 27 35 47 14 20 28 37 33 37 4 0 7 7 7 15 0 8 3 15 8 15 4 0 16 14 27 30 26
39 49 38 65 -2z m-720 -160 c7 -74 5 -78 -36 -78 l-34 0 0 63 c0 72 4 79 40
75 23 -3 25 -8 30 -60z m-590 -68 l0 -60 -35 0 -35 0 0 60 0 60 35 0 35 0 0
-60z m1138 -57 c29 -27 68 -61 88 -78 74 -62 200 -172 244 -213 l35 -34 -40 5
c-22 3 -83 13 -135 22 -52 9 -111 18 -130 21 -19 3 -44 9 -55 14 -11 5 -38 11
-60 13 -22 3 -56 8 -75 12 -19 4 -55 10 -80 14 -38 6 -44 10 -42 26 3 18 38
70 84 126 9 11 31 42 50 69 18 27 40 50 49 50 8 0 39 -21 67 -47z m-537 -115
c7 -79 2 -90 -39 -86 l-36 3 3 55 c3 67 5 70 41 70 26 0 28 -3 31 -42z m-601
-54 l0 -55 -32 3 c-32 3 -33 4 -36 56 l-3 52 35 0 36 0 0 -56z m-890 -119 c0
-63 -3 -115 -7 -115 -5 0 -21 12 -38 28 -16 15 -48 40 -70 56 -22 16 -42 31
-44 33 -5 4 51 53 61 53 4 0 13 6 20 13 19 19 61 47 70 47 5 0 8 -52 8 -115z
m5070 95 c0 -5 5 -10 11 -10 6 0 33 -17 60 -39 48 -38 48 -39 30 -60 -10 -11
-21 -21 -25 -21 -6 0 -37 -24 -67 -52 -9 -9 -20 -14 -23 -10 -11 10 -7 202 4
202 6 0 10 -4 10 -10z m-3230 -80 c25 -5 61 -12 80 -15 19 -4 82 -16 140 -27
58 -11 128 -24 155 -28 57 -8 85 -18 85 -31 0 -5 -10 -9 -22 -9 -26 0 -169
-16 -273 -30 -139 -19 -210 -31 -360 -64 -38 -8 -73 -12 -77 -10 -10 6 3 31
31 61 12 12 21 26 21 32 0 5 4 11 8 13 4 2 21 21 37 43 61 82 68 87 100 80 16
-3 50 -10 75 -15z m-942 -49 c9 -5 12 -25 10 -57 -3 -48 -4 -49 -37 -52 -20
-2 -37 2 -42 10 -13 20 -11 96 4 101 19 8 51 7 65 -2z m592 -72 c0 -43 -3 -50
-29 -63 -16 -9 -31 -12 -35 -9 -3 4 -6 32 -6 64 0 52 2 58 23 61 39 7 47 -2
47 -53z m995 -69 c4 -6 2 -17 -5 -25 -7 -9 -8 -15 0 -20 11 -7 14 -124 2 -141
-8 -13 -54 -20 -222 -33 -117 -9 -333 -36 -427 -52 -164 -28 -178 -31 -303
-64 -36 -9 -76 -19 -90 -22 -14 -2 -34 -8 -45 -13 -11 -4 -60 -20 -110 -35
-49 -16 -94 -32 -100 -37 -5 -4 -17 -8 -27 -8 -10 0 -26 -4 -36 -9 -9 -5 -48
-21 -87 -36 -38 -15 -78 -31 -87 -36 -10 -5 -27 -9 -38 -9 -11 0 -20 -4 -20
-10 0 -5 -8 -10 -18 -10 -10 0 -28 -7 -40 -16 -24 -17 -30 -15 -83 28 -22 18
-69 95 -69 113 0 8 21 25 48 38 26 12 49 25 50 30 2 4 10 7 18 7 12 0 101 37
146 61 10 5 27 9 38 9 11 0 20 5 20 10 0 6 8 10 18 10 10 0 22 3 25 6 10 10
109 43 130 44 9 0 17 3 17 8 0 7 13 12 170 58 157 47 373 94 430 94 20 0 40 4
46 9 5 5 36 12 69 15 154 13 285 27 340 35 88 12 233 13 240 1z m-1585 -94 c0
-54 -8 -66 -47 -66 -32 0 -35 2 -29 23 3 12 6 34 6 50 0 24 4 27 35 27 33 0
35 -2 35 -34z m1574 -212 c3 -9 6 -67 6 -129 0 -134 -1 -135 -101 -135 -35 0
-125 -5 -201 -12 -76 -6 -141 -8 -145 -5 -3 4 6 31 20 60 15 29 27 58 27 65 0
6 5 12 10 12 6 0 10 11 10 25 0 17 5 25 18 25 18 -1 130 -95 122 -103 -3 -3
-23 -7 -45 -9 -35 -3 -40 0 -43 20 l-4 23 -24 -28 c-13 -15 -24 -31 -24 -35 0
-12 126 -9 177 3 l45 12 -73 68 c-40 38 -76 69 -80 69 -4 0 -9 3 -11 8 -2 4
-15 17 -29 30 l-26 23 -72 -144 c-82 -162 -58 -142 -231 -182 -41 -9 -86 -21
-100 -25 -14 -5 -42 -11 -62 -14 -32 -4 -38 -2 -38 14 0 10 5 22 10 25 6 3 10
17 10 31 0 13 4 24 8 24 5 0 15 19 22 43 7 23 17 46 21 51 9 10 89 -23 89 -36
0 -5 9 -8 20 -8 11 0 20 -7 20 -15 0 -8 -6 -15 -12 -15 -7 0 -22 -3 -34 -6
-13 -3 -28 1 -38 11 -9 10 -18 16 -19 14 -1 -2 -8 -14 -14 -26 -7 -13 -13 -27
-13 -33 0 -10 50 -4 85 10 11 4 46 14 78 21 60 13 71 27 34 45 -12 6 -62 34
-112 62 -49 29 -96 52 -103 52 -11 0 -17 -10 -43 -77 -5 -13 -13 -33 -18 -45
-5 -13 -17 -43 -26 -68 -41 -106 -40 -104 -102 -124 -32 -10 -66 -22 -75 -27
-10 -5 -26 -9 -36 -9 -10 0 -22 -3 -25 -7 -9 -9 -108 -43 -124 -43 -10 0 -11
5 -3 19 5 11 10 30 10 43 0 13 4 28 8 34 5 5 15 29 22 54 23 76 27 82 52 67
28 -15 78 -59 78 -66 0 -7 -49 -31 -62 -31 -4 0 -8 7 -8 15 0 8 -4 15 -9 15
-8 0 -24 -71 -17 -78 5 -4 113 26 138 39 10 5 27 9 37 9 34 0 32 17 -3 44 -19
14 -38 26 -43 26 -5 0 -15 9 -23 20 -8 11 -18 20 -22 20 -4 0 -30 16 -58 36
-51 36 -70 37 -70 4 0 -10 -4 -22 -10 -25 -5 -3 -10 -16 -10 -29 0 -12 -3 -26
-7 -30 -4 -3 -18 -41 -32 -84 -24 -71 -28 -77 -51 -74 -14 1 -26 7 -28 12 -2
6 -12 10 -22 10 -10 0 -20 3 -22 8 -4 9 -76 51 -100 59 -10 3 -18 9 -18 14 0
5 -9 9 -20 9 -23 0 -26 15 -7 34 35 35 333 147 547 206 25 6 55 16 67 21 12 4
45 11 73 15 28 4 53 11 56 15 3 5 23 9 45 9 21 0 39 4 39 9 0 5 19 11 43 14
23 3 85 12 137 21 52 9 162 21 244 26 81 5 151 11 154 14 3 3 40 6 83 6 61 0
78 -3 83 -16z m-2240 -388 c25 -48 46 -91 46 -93 0 -3 -17 -2 -37 1 -21 4 -59
10 -85 12 -57 7 -59 16 -25 95 13 30 27 63 31 73 9 26 16 17 70 -88z m2241 62
c3 -13 5 -63 3 -113 l-3 -90 -45 -8 c-25 -4 -74 -12 -110 -17 -36 -4 -100 -13
-144 -19 -43 -7 -82 -11 -86 -9 -9 3 28 86 46 105 7 7 18 26 26 43 7 16 17 30
22 30 13 0 76 -43 76 -52 0 -5 7 -8 15 -8 26 0 16 -16 -18 -28 -44 -16 -47
-15 -47 8 0 11 -3 20 -6 20 -10 0 -34 -28 -34 -39 0 -6 -4 -11 -10 -11 -5 0
-10 -5 -10 -11 0 -13 69 -8 153 10 80 17 80 18 2 76 -39 29 -55 42 -97 78 -23
19 -28 20 -43 9 -14 -10 -65 -90 -65 -102 0 -5 -4 -10 -8 -10 -4 0 -16 -15
-27 -32 -10 -18 -27 -42 -37 -52 -10 -11 -18 -25 -18 -30 0 -14 -56 -46 -80
-46 -10 0 -22 -4 -25 -10 -3 -5 -16 -10 -28 -10 -12 0 -58 -11 -102 -25 -105
-33 -104 -33 -91 10 6 19 14 35 18 35 5 0 8 10 8 23 0 13 4 27 8 32 5 6 17 31
26 58 10 26 19 47 21 47 3 0 26 -12 52 -27 71 -39 91 -63 54 -63 -11 0 -21 -6
-24 -12 -3 -9 -10 -6 -23 8 l-18 22 -13 -25 c-13 -25 -18 -63 -8 -63 9 0 137
40 163 51 21 8 22 11 8 24 -8 8 -19 15 -25 15 -6 0 -11 4 -11 8 0 5 -16 17
-35 28 -19 10 -35 22 -35 26 0 5 -7 8 -15 8 -8 0 -15 4 -15 9 0 5 -13 14 -30
21 -42 17 -39 40 4 40 19 0 37 4 40 9 3 4 25 11 48 14 24 3 93 15 153 26 61
11 135 21 165 22 30 0 66 4 80 8 14 4 62 8 107 10 79 2 83 1 88 -21z m2415
-30 c0 -10 5 -18 10 -18 6 0 10 -11 10 -25 0 -14 5 -25 10 -25 6 0 10 -9 10
-19 0 -15 -9 -20 -47 -24 -27 -3 -63 -9 -80 -12 -18 -4 -33 -4 -33 -1 0 6 67
137 84 164 6 10 11 9 22 -5 7 -10 14 -26 14 -35z m-3157 -78 c-3 -11 -9 -23
-14 -26 -5 -3 -9 -14 -9 -25 0 -10 -4 -19 -10 -19 -5 0 -10 -6 -10 -13 0 -12
-37 -99 -60 -139 -6 -10 -10 -24 -10 -32 0 -21 -21 -31 -30 -16 -5 8 -2 23 6
35 14 21 12 23 -61 59 -42 20 -80 36 -86 36 -5 0 -9 3 -9 8 0 7 -47 32 -62 32
-4 0 -8 -7 -8 -16 0 -30 -26 -45 -57 -34 -15 6 -34 13 -41 15 -11 4 -11 8 2
20 8 8 21 15 28 15 17 1 116 35 125 44 3 3 17 6 29 6 13 0 26 5 29 10 3 6 19
10 35 10 16 0 32 5 35 10 3 6 17 10 29 10 13 0 39 7 57 15 19 8 48 14 66 15
26 0 30 -3 26 -20z m745 -399 c1 -145 -2 -249 -7 -254 -6 -6 -18 8 -31 39 -12
27 -33 73 -46 102 -13 29 -24 55 -24 57 0 3 -9 27 -21 53 -12 26 -26 58 -31
72 -29 71 -42 91 -57 84 -9 -3 -37 -9 -63 -11 -27 -3 -48 -9 -48 -14 0 -5 -16
-9 -35 -9 -47 0 -45 -15 10 -72 25 -27 45 -50 45 -53 0 -3 20 -26 45 -53 25
-26 45 -53 45 -59 0 -7 4 -13 8 -13 5 0 17 -16 28 -35 10 -19 22 -35 26 -35 5
0 8 -9 8 -20 0 -11 5 -20 10 -20 6 0 10 -7 10 -15 0 -21 -4 -20 -66 20 -30 19
-59 35 -64 35 -6 0 -10 4 -10 8 0 4 -25 21 -55 37 -30 17 -55 33 -55 38 0 4
-9 7 -19 7 -11 0 -21 3 -23 8 -1 4 -78 45 -170 92 -93 46 -168 85 -168 87 0 3
77 38 115 53 11 4 47 15 80 25 33 9 73 21 89 26 16 5 41 9 55 9 15 0 31 4 36
9 6 5 35 12 65 15 30 3 105 11 165 19 61 8 119 14 130 13 19 -1 20 -9 23 -245z
m-1018 219 c0 -5 10 -10 22 -12 13 -2 24 -10 26 -19 3 -14 -2 -15 -33 -5 -19
6 -35 14 -35 18 0 5 -9 8 -20 8 -19 0 -26 11 -15 22 8 8 55 -3 55 -12z"/>
<path d="M3987 3193 c-13 -12 -7 -28 18 -55 14 -15 25 -30 25 -33 0 -12 29
-35 44 -35 8 0 18 9 21 20 3 11 11 20 16 20 5 0 9 5 9 11 0 7 10 20 21 30 39
34 18 49 -69 49 -43 0 -82 -3 -85 -7z"/>
<path d="M3745 3162 c-33 -2 -63 -8 -66 -14 -4 -6 15 -33 43 -60 40 -39 53
-46 64 -37 8 6 14 18 14 25 0 8 3 14 8 14 8 0 42 57 42 71 0 5 -10 8 -23 6
-13 -1 -50 -3 -82 -5z"/>
<path d="M3460 3113 c-40 -6 -110 -25 -110 -30 0 -12 106 -93 122 -93 4 0 8 6
8 14 0 8 3 16 8 18 8 4 42 74 42 88 0 10 -22 11 -70 3z"/>
<path d="M3135 3051 c-52 -14 -95 -37 -84 -45 36 -25 121 -77 123 -74 4 6 56
129 56 134 0 7 -32 2 -95 -15z"/>
<path d="M2868 2961 c-26 -10 -51 -20 -55 -24 -3 -4 -15 -7 -25 -7 -34 0 -18
-30 27 -52 25 -12 45 -26 45 -30 0 -4 11 -8 25 -8 22 0 25 4 25 34 0 19 5 38
10 41 12 7 14 65 3 64 -5 0 -29 -9 -55 -18z"/>
<path d="M2612 2865 c-13 -7 -43 -21 -67 -31 -44 -18 -67 -44 -40 -44 8 0 15
-4 15 -10 0 -5 6 -10 13 -10 8 0 28 -7 46 -16 40 -20 48 -13 61 56 11 61 5 72
-28 55z"/>
<path d="M4915 6798 c-16 -6 -55 -21 -86 -34 -70 -30 -134 -31 -264 -4 l-98
19 -58 -31 c-33 -18 -59 -35 -59 -39 0 -13 243 -37 382 -38 100 -1 108 1 136
24 17 14 35 25 41 25 6 0 11 4 11 8 0 11 149 62 179 62 11 0 21 5 21 10 0 13
-165 11 -205 -2z"/>
<path d="M4420 5317 c0 -35 5 -77 10 -93 12 -34 44 -49 210 -94 25 -7 54 -16
65 -20 11 -5 34 -11 50 -13 61 -10 170 -40 183 -49 6 -6 12 -23 12 -39 0 -28
-2 -29 -42 -28 -52 0 -170 22 -263 49 -22 6 -53 15 -70 19 -16 5 -43 14 -59
20 -38 15 -46 3 -35 -52 4 -23 8 -45 9 -48 0 -9 49 -29 71 -29 10 0 27 -4 37
-9 31 -16 154 -41 292 -58 48 -6 60 -15 60 -50 0 -21 -4 -23 -58 -23 -33 0
-94 4 -138 10 -43 5 -112 11 -151 13 -71 4 -73 4 -73 -19 0 -12 3 -24 8 -26 4
-1 14 -16 22 -33 15 -29 19 -30 100 -37 131 -11 170 -18 170 -34 0 -8 -9 -14
-19 -14 -11 0 -23 -4 -26 -10 -3 -5 -15 -10 -26 -10 -10 0 -19 -4 -19 -10 0
-5 -11 -10 -24 -10 -13 0 -26 -3 -28 -8 -1 -4 -25 -22 -53 -39 -52 -34 -135
-107 -135 -120 0 -5 -14 -24 -30 -43 -16 -19 -30 -43 -30 -52 0 -10 -4 -18
-10 -18 -5 0 -10 -6 -10 -14 0 -7 -7 -26 -15 -42 -17 -33 -5 -54 31 -54 12 0
26 -4 29 -10 3 -5 21 -10 40 -10 19 0 36 -4 40 -10 11 -18 32 2 45 43 8 23 17
46 22 52 4 5 8 15 8 22 0 23 79 140 114 170 62 52 76 63 85 63 5 0 11 4 13 9
3 9 112 61 128 61 6 0 18 4 28 9 9 5 38 15 65 23 26 7 48 17 48 23 2 20 -3 50
-10 55 -4 3 -18 49 -30 103 -19 78 -22 119 -20 204 l4 106 -35 13 c-19 7 -47
13 -62 13 -16 1 -28 5 -28 10 0 5 -17 11 -37 14 -45 5 -159 45 -246 85 -34 16
-77 35 -94 43 -18 8 -33 17 -33 21 0 5 -9 8 -19 8 -11 0 -21 4 -23 9 -1 4 -13
12 -25 15 -22 7 -23 5 -23 -57z"/>
<path d="M5918 5373 c-10 -2 -18 -9 -18 -14 0 -5 -9 -9 -20 -9 -11 0 -20 -4
-20 -10 0 -5 -6 -10 -12 -10 -16 0 -122 -53 -126 -62 -2 -5 -11 -8 -20 -8 -16
0 -141 -44 -174 -61 -10 -5 -29 -9 -42 -9 -14 0 -28 -4 -31 -10 -3 -5 -18 -10
-33 -10 -15 0 -45 -7 -67 -14 -35 -13 -40 -18 -37 -43 11 -106 13 -223 3 -223
-6 0 -11 -13 -11 -29 0 -17 -11 -61 -25 -99 -14 -38 -25 -76 -25 -84 0 -8 19
-19 48 -26 26 -8 55 -18 64 -23 10 -5 24 -9 31 -9 19 0 115 -48 166 -83 53
-36 131 -116 131 -133 0 -7 4 -14 8 -16 9 -4 62 -114 62 -129 0 -5 7 -23 15
-40 13 -24 19 -28 35 -19 10 5 32 10 49 10 17 0 31 5 31 10 0 6 16 10 35 10
30 0 35 3 35 22 0 23 -49 130 -62 136 -5 2 -8 8 -8 13 0 11 -2 14 -55 74 -19
22 -35 43 -35 48 0 4 -6 7 -14 7 -8 0 -16 4 -18 9 -5 13 -115 81 -133 81 -8 0
-15 5 -15 10 0 6 -7 10 -15 10 -8 0 -23 4 -33 9 -9 5 -30 15 -47 22 l-30 13
60 9 c33 4 98 11 145 15 l85 7 22 45 c33 65 31 70 -24 64 -181 -17 -274 -24
-320 -24 l-54 0 3 33 c3 30 6 32 53 39 93 13 170 27 235 43 36 9 79 19 95 22
54 8 75 24 75 55 0 16 5 39 11 50 19 36 -3 39 -91 12 -47 -14 -103 -30 -125
-35 -22 -6 -54 -15 -71 -20 -16 -5 -65 -12 -107 -15 l-77 -7 0 36 c0 20 4 38
9 41 10 6 139 36 186 43 17 2 39 8 50 12 11 5 36 13 55 18 132 39 210 67 214
78 10 26 18 175 10 174 -5 -1 -17 -3 -26 -6z"/>
<path d="M5078 4490 c-54 -55 -98 -104 -98 -109 0 -14 191 -201 205 -201 14 0
205 188 205 202 0 11 -196 208 -206 208 -5 0 -53 -45 -106 -100z"/>
<path d="M4739 4383 c-4 -30 5 -171 12 -190 6 -17 16 -23 39 -23 57 0 178 -72
267 -159 18 -17 35 -31 38 -31 3 0 17 -11 31 -24 29 -26 28 -27 -41 -81 -21
-16 -48 -39 -59 -50 -28 -27 -115 -88 -146 -103 -14 -6 -50 -17 -80 -25 l-55
-13 -5 -100 c-3 -54 -4 -101 -3 -103 2 -2 14 1 28 7 14 7 59 12 100 12 l75 0
0 35 c0 19 4 35 9 35 5 0 12 16 15 35 4 19 11 35 16 35 6 0 10 6 10 14 0 7 10
24 23 37 13 13 41 46 63 74 107 135 101 129 116 114 7 -8 33 -39 58 -69 24
-30 53 -62 62 -71 10 -9 18 -20 18 -25 0 -5 10 -21 23 -35 31 -35 47 -65 47
-89 0 -11 5 -20 10 -20 6 0 10 -16 10 -35 l0 -35 79 0 c44 0 83 -4 86 -10 3
-5 15 -10 27 -10 18 0 19 4 14 33 -3 17 -9 64 -12 103 l-6 72 -59 12 c-33 7
-59 17 -59 21 0 5 -9 9 -20 9 -11 0 -20 5 -20 10 0 6 -5 10 -11 10 -6 0 -16 6
-24 13 -7 6 -25 21 -41 32 -15 11 -32 25 -38 30 -6 6 -29 24 -51 40 -56 42
-65 51 -65 69 0 8 6 19 14 23 8 4 35 27 60 51 24 23 49 42 55 42 5 0 11 4 13
8 5 13 104 82 117 82 6 0 11 4 11 9 0 5 26 13 58 17 l57 9 6 65 c4 36 10 85
14 109 8 42 7 43 -13 32 -11 -6 -59 -11 -106 -11 l-86 0 0 -30 c0 -17 -4 -38
-9 -48 -5 -9 -15 -30 -22 -47 -16 -35 -53 -88 -91 -130 -16 -16 -28 -33 -28
-36 0 -4 -20 -28 -44 -55 l-44 -48 -33 35 c-17 19 -48 54 -68 79 -20 25 -43
53 -52 63 -9 9 -22 30 -30 45 -8 15 -17 29 -20 32 -14 10 -39 84 -39 111 l0
29 -90 0 c-53 0 -90 4 -90 10 0 12 -19 14 -21 3z"/>
<path d="M4613 4034 c-57 -57 -103 -106 -103 -110 0 -3 47 -53 104 -110 l103
-103 99 99 c54 55 99 106 99 114 0 13 -102 124 -171 187 l-29 27 -102 -104z"/>
<path d="M5535 4037 c-58 -57 -105 -107 -105 -112 0 -4 18 -26 40 -47 22 -22
40 -44 40 -49 0 -5 4 -9 10 -9 5 0 31 -22 58 -50 27 -27 53 -50 59 -50 14 0
203 190 203 204 0 13 -30 46 -81 92 -19 16 -53 51 -77 77 l-42 47 -105 -103z"/>
<path d="M4515 3675 c-22 -8 -52 -15 -67 -15 -16 0 -28 -4 -28 -10 0 -5 -7
-10 -16 -10 -18 0 -12 -27 17 -78 10 -18 19 -40 19 -48 0 -8 4 -14 8 -14 4 0
16 -14 27 -32 38 -66 148 -162 218 -191 15 -6 27 -15 27 -19 0 -4 9 -8 20 -8
11 0 20 -4 20 -10 0 -5 9 -10 19 -10 29 0 51 -11 51 -25 0 -19 -24 -25 -106
-25 -104 0 -161 -15 -168 -46 -4 -13 -11 -24 -16 -24 -6 0 -10 -11 -10 -25 l0
-24 118 5 c64 3 130 10 146 15 16 5 58 9 92 9 56 0 64 -2 64 -19 0 -36 -12
-51 -40 -51 -16 0 -32 -4 -35 -10 -3 -5 -21 -10 -38 -10 -18 0 -75 -10 -127
-21 -52 -12 -110 -23 -128 -26 -18 -3 -35 -9 -38 -14 -3 -5 -16 -9 -30 -9 -13
0 -24 -6 -25 -12 0 -7 -4 -34 -8 -60 -9 -55 -4 -57 64 -33 22 8 48 15 58 15 9
0 17 4 17 9 0 5 17 11 38 14 20 3 82 14 137 26 130 27 143 27 151 -3 12 -51 1
-60 -106 -80 -56 -11 -103 -23 -106 -28 -3 -4 -18 -8 -34 -8 -16 0 -32 -4 -35
-10 -3 -5 -16 -10 -28 -10 -25 0 -133 -33 -143 -43 -4 -4 -17 -7 -30 -7 -16 0
-25 -9 -33 -31 -14 -40 -15 -169 -1 -169 6 0 10 5 10 10 0 6 6 10 14 10 8 0
42 16 76 35 34 19 68 35 76 35 8 0 14 5 14 10 0 6 11 10 25 10 14 0 25 3 25 8
0 4 27 16 61 26 33 11 62 23 65 28 3 4 18 8 34 8 16 0 31 4 34 9 3 5 20 11 38
14 18 3 58 11 88 19 l55 14 -4 92 c-3 94 15 259 31 268 4 3 8 18 8 35 0 16 4
29 9 29 13 0 19 48 8 59 -6 6 -21 11 -33 11 -13 0 -26 5 -29 10 -3 6 -17 10
-31 10 -13 0 -32 4 -42 9 -9 5 -35 17 -57 27 -62 29 -153 92 -194 134 -40 41
-111 170 -111 200 0 11 -4 20 -10 20 -5 0 -10 11 -10 25 0 29 -9 30 -65 10z"/>
<path d="M5076 3574 c-74 -74 -95 -101 -90 -116 6 -20 183 -198 197 -198 11 0
207 194 207 205 0 12 -196 205 -208 205 -5 0 -53 -43 -106 -96z"/>
<path d="M644 3522 c-15 -20 -31 -39 -34 -42 -13 -11 -100 -139 -100 -147 0
-4 21 -21 45 -38 25 -16 45 -33 45 -37 0 -5 6 -8 14 -8 8 0 16 -4 18 -9 3 -8
175 -131 183 -131 4 0 31 -21 59 -45 6 -6 24 -19 41 -29 16 -11 34 -23 40 -28
5 -4 35 -25 65 -45 30 -20 57 -40 58 -45 2 -4 9 -8 15 -8 7 0 27 -13 45 -28
32 -27 41 -48 62 -147 4 -22 11 -50 15 -62 5 -14 3 -23 -3 -23 -13 0 -62 62
-62 78 0 7 -4 12 -10 12 -5 0 -10 7 -10 15 0 8 -3 15 -8 15 -4 0 -16 16 -26
35 -11 19 -22 35 -26 35 -4 0 -10 9 -13 20 -5 18 -14 20 -116 20 -87 0 -113 3
-123 15 -7 9 -18 21 -24 28 -5 7 -17 27 -25 45 -7 17 -17 32 -21 32 -5 0 -8 6
-8 13 0 7 -9 23 -20 34 -16 17 -25 20 -47 13 -77 -25 -133 -40 -148 -40 -8 0
-23 -4 -33 -9 -9 -5 -38 -15 -64 -23 -74 -19 -61 -36 35 -42 161 -10 207 -22
207 -55 0 -6 4 -11 8 -11 5 0 17 -18 27 -40 10 -22 22 -40 27 -40 4 0 8 -7 8
-15 0 -13 20 -15 121 -15 130 0 124 2 173 -65 17 -22 40 -49 52 -61 12 -11 27
-30 33 -42 12 -23 16 -23 -54 0 -16 5 -39 14 -50 18 -11 5 -42 16 -70 25 -27
10 -59 21 -70 25 -11 5 -38 14 -60 21 -22 6 -66 22 -98 35 -32 13 -60 24 -63
24 -8 0 -74 -150 -74 -169 0 -21 61 -41 124 -41 20 0 36 -4 36 -10 0 -5 13
-10 29 -10 26 0 121 -34 173 -61 10 -5 24 -9 32 -9 8 0 16 -3 18 -7 2 -5 23
-18 48 -30 55 -27 100 -54 118 -70 7 -7 16 -13 20 -13 4 0 19 -10 33 -23 15
-12 42 -34 62 -50 46 -36 127 -118 152 -152 11 -16 25 -33 30 -39 6 -6 49 -70
98 -141 96 -142 131 -185 192 -229 22 -17 42 -32 45 -35 3 -4 19 -13 35 -21
17 -8 32 -17 35 -21 3 -3 21 -12 40 -21 120 -56 168 -76 190 -82 14 -4 34 -11
45 -15 11 -5 33 -14 48 -20 15 -6 38 -11 50 -11 13 0 27 -4 32 -9 6 -4 45 -14
88 -21 80 -13 93 -25 55 -49 -26 -16 -146 -17 -162 -1 -6 6 -27 10 -47 10 -21
0 -41 4 -44 10 -3 5 -17 10 -30 10 -13 0 -34 4 -47 9 -13 5 -48 17 -78 26 -30
8 -64 20 -75 24 -63 27 -87 33 -96 24 -6 -6 -8 -71 -7 -158 l3 -149 70 -19
c90 -25 131 -31 138 -20 3 4 -2 24 -12 43 -11 25 -24 36 -43 38 -31 4 -40 21
-31 62 5 26 10 30 39 30 18 0 36 -4 39 -10 3 -5 21 -10 40 -10 19 0 45 -5 59
-11 24 -11 25 -17 28 -93 l3 -81 54 -3 c30 -2 58 1 63 6 4 4 11 38 15 74 l6
66 56 -4 c31 -3 72 -7 91 -10 19 -3 78 -10 130 -15 52 -5 118 -12 145 -16 47
-8 50 -10 53 -40 l3 -33 -65 0 -66 0 0 -33 c0 -31 3 -34 48 -45 38 -9 180 -17
228 -13 12 1 16 17 38 161 9 53 10 89 5 95 -6 5 -75 11 -154 13 -111 3 -145 7
-149 18 -3 8 -2 14 2 14 4 0 20 11 35 24 25 22 27 27 15 45 -7 12 -16 21 -20
21 -5 0 -8 6 -8 13 0 7 -8 22 -17 33 -10 10 -31 37 -47 59 -17 22 -32 42 -36
45 -3 3 -18 23 -34 45 -38 52 -66 75 -93 75 -13 0 -23 5 -23 10 0 6 -7 10 -16
10 -22 0 -118 33 -122 43 -2 4 -16 7 -31 7 -15 0 -31 3 -35 7 -10 10 -78 33
-99 33 -17 0 -18 -6 -13 -47 15 -128 20 -148 34 -159 9 -6 52 -19 96 -29 45
-9 91 -21 104 -26 23 -9 82 -13 82 -5 0 2 -6 16 -14 31 -16 30 -70 55 -118 55
-16 0 -28 4 -28 8 0 5 -19 12 -42 18 -37 8 -43 13 -46 38 -3 26 -2 28 25 23
74 -15 90 -19 123 -27 19 -5 54 -14 77 -20 41 -10 42 -11 67 -90 37 -112 35
-121 -16 -101 -13 5 -59 17 -103 27 -44 10 -84 21 -90 26 -5 4 -24 8 -41 8
-18 0 -36 5 -39 10 -3 6 -21 10 -39 10 -57 0 -65 14 -77 135 -13 128 -21 155
-53 175 -77 49 -316 279 -316 305 0 9 -54 90 -62 93 -5 2 -8 15 -8 28 0 13 -4
24 -10 24 -5 0 -10 9 -10 19 0 11 -3 21 -7 23 -9 3 -43 98 -43 117 0 6 17 11
39 11 51 0 102 11 99 21 -2 4 -45 53 -95 109 l-93 100 0 54 c0 34 5 58 14 65
8 7 45 16 83 22 113 16 116 17 99 34 -8 8 -17 15 -20 15 -3 0 -30 16 -60 35
-30 19 -62 35 -71 35 -8 0 -15 4 -15 9 0 5 -8 11 -17 15 -20 7 -191 109 -210
126 -7 5 -15 10 -17 10 -10 0 -121 73 -124 82 -2 4 -8 8 -13 8 -8 0 -87 47
-99 60 -3 3 -18 12 -35 20 -16 8 -39 23 -49 33 -11 9 -23 17 -26 17 -4 0 -20
11 -36 25 -16 14 -34 25 -40 25 -5 0 -19 8 -30 18 -20 18 -115 81 -150 100
-19 10 -25 7 -50 -26z"/>
<path d="M7684 2981 c-18 -4 -45 -18 -62 -30 -17 -11 -35 -21 -41 -21 -6 0
-11 -4 -11 -8 0 -8 -69 -44 -177 -94 -66 -30 -176 -139 -154 -152 5 -4 15 0
23 7 31 31 154 73 243 83 22 3 49 9 60 14 11 4 41 15 68 25 26 9 47 21 47 26
0 5 7 9 15 9 8 0 15 4 15 8 0 18 92 34 179 31 50 -2 92 1 92 5 3 13 -24 46
-38 46 -7 0 -13 4 -13 8 0 32 -173 62 -246 43z"/>
<path d="M1686 2291 c-3 -4 2 -17 12 -27 9 -10 30 -36 45 -57 15 -20 31 -37
35 -37 8 0 76 110 70 114 -9 8 -158 15 -162 7z"/>
<path d="M6608 2232 c-21 -2 -38 -8 -38 -13 0 -13 50 -108 60 -114 7 -4 24 14
91 93 6 7 8 20 5 28 -6 15 -10 15 -118 6z"/>
<path d="M1933 2048 c-23 -11 -31 -28 -15 -28 5 0 18 -8 30 -17 51 -44 62 -52
80 -62 27 -15 32 -6 32 61 l0 58 -52 -1 c-29 0 -63 -5 -75 -11z"/>
<path d="M6360 1930 c0 -40 4 -70 10 -70 6 0 10 5 10 10 0 6 7 10 15 10 8 0
15 3 15 8 0 4 20 21 45 37 44 30 56 52 33 59 -7 3 -39 7 -70 10 l-58 6 0 -70z"/>
<path d="M4030 1591 c0 -32 6 -43 34 -65 19 -14 41 -33 50 -41 14 -14 16 -13
22 10 8 32 -12 82 -36 90 -9 3 -25 14 -35 25 -27 29 -35 25 -35 -19z"/>
<path d="M4372 1589 c-40 -40 -50 -67 -36 -102 4 -12 17 -4 55 31 40 37 49 52
49 79 0 44 -16 42 -68 -8z"/>
</g>
</svg>
